<mxfile host="app.diagrams.net" modified="2023-03-08T14:39:51.735Z" agent="5.0 (Windows)" etag="QT7yVHzG4-3wrMIBtbOR" version="21.0.2" type="github">
  <diagram name="Page-1" id="e7e014a7-5840-1c2e-5031-d8a46d1fe8dd">
    <mxGraphModel dx="1674" dy="746" grid="1" gridSize="10" guides="1" tooltips="1" connect="1" arrows="1" fold="1" page="1" pageScale="1" pageWidth="1169" pageHeight="826" background="none" math="0" shadow="0">
      <root>
        <mxCell id="0" />
        <mxCell id="1" parent="0" />
        <mxCell id="L-Oy49CxzgtTOeUKxRRn-44" style="edgeStyle=orthogonalEdgeStyle;rounded=0;orthogonalLoop=1;jettySize=auto;html=1;" parent="1" source="L-Oy49CxzgtTOeUKxRRn-41" target="L-Oy49CxzgtTOeUKxRRn-42" edge="1">
          <mxGeometry relative="1" as="geometry" />
        </mxCell>
        <mxCell id="L-Oy49CxzgtTOeUKxRRn-41" value="" style="ellipse;html=1;shape=endState;fillColor=#000000;strokeColor=#ff0000;" parent="1" vertex="1">
          <mxGeometry x="555" y="70" width="30" height="30" as="geometry" />
        </mxCell>
        <mxCell id="L-Oy49CxzgtTOeUKxRRn-42" value="Inlog gegevens invoeren" style="rounded=1;whiteSpace=wrap;html=1;arcSize=40;fontColor=#000000;fillColor=#ffffc0;strokeColor=#ff0000;" parent="1" vertex="1">
          <mxGeometry x="510" y="140" width="120" height="40" as="geometry" />
        </mxCell>
        <mxCell id="L-Oy49CxzgtTOeUKxRRn-43" value="" style="edgeStyle=orthogonalEdgeStyle;html=1;verticalAlign=bottom;endArrow=open;endSize=8;strokeColor=#ff0000;rounded=0;" parent="1" source="L-Oy49CxzgtTOeUKxRRn-42" edge="1">
          <mxGeometry relative="1" as="geometry">
            <mxPoint x="570" y="230" as="targetPoint" />
          </mxGeometry>
        </mxCell>
        <mxCell id="L-Oy49CxzgtTOeUKxRRn-51" value="Heeft email en wachtwoord" style="rhombus;whiteSpace=wrap;html=1;fontColor=#000000;fillColor=#ffffc0;strokeColor=#ff0000;" parent="1" vertex="1">
          <mxGeometry x="479.37" y="230" width="178.75" height="60" as="geometry" />
        </mxCell>
        <mxCell id="L-Oy49CxzgtTOeUKxRRn-52" value="no" style="edgeStyle=orthogonalEdgeStyle;html=1;align=left;verticalAlign=bottom;endArrow=open;endSize=8;strokeColor=#ff0000;rounded=0;entryX=1;entryY=0.5;entryDx=0;entryDy=0;" parent="1" source="L-Oy49CxzgtTOeUKxRRn-51" target="L-Oy49CxzgtTOeUKxRRn-42" edge="1">
          <mxGeometry x="-1" relative="1" as="geometry">
            <mxPoint x="690" y="160" as="targetPoint" />
            <Array as="points">
              <mxPoint x="750" y="250" />
              <mxPoint x="750" y="160" />
            </Array>
          </mxGeometry>
        </mxCell>
        <mxCell id="L-Oy49CxzgtTOeUKxRRn-53" value="yes" style="edgeStyle=orthogonalEdgeStyle;html=1;align=left;verticalAlign=top;endArrow=open;endSize=8;strokeColor=#ff0000;rounded=0;" parent="1" source="L-Oy49CxzgtTOeUKxRRn-51" edge="1">
          <mxGeometry x="-1" relative="1" as="geometry">
            <mxPoint x="570" y="310" as="targetPoint" />
          </mxGeometry>
        </mxCell>
        <mxCell id="L-Oy49CxzgtTOeUKxRRn-56" value="Bestaat account? " style="rhombus;whiteSpace=wrap;html=1;fontColor=#000000;fillColor=#ffffc0;strokeColor=#ff0000;" parent="1" vertex="1">
          <mxGeometry x="497.5" y="313" width="142.5" height="40" as="geometry" />
        </mxCell>
        <mxCell id="L-Oy49CxzgtTOeUKxRRn-57" value="no" style="edgeStyle=orthogonalEdgeStyle;html=1;align=left;verticalAlign=bottom;endArrow=open;endSize=8;strokeColor=#ff0000;rounded=0;" parent="1" source="L-Oy49CxzgtTOeUKxRRn-56" target="L-Oy49CxzgtTOeUKxRRn-42" edge="1">
          <mxGeometry x="-1" relative="1" as="geometry">
            <mxPoint x="720" y="160" as="targetPoint" />
            <Array as="points">
              <mxPoint x="750" y="333" />
              <mxPoint x="750" y="160" />
            </Array>
          </mxGeometry>
        </mxCell>
        <mxCell id="L-Oy49CxzgtTOeUKxRRn-58" value="yes" style="edgeStyle=orthogonalEdgeStyle;html=1;align=left;verticalAlign=top;endArrow=open;endSize=8;strokeColor=#ff0000;rounded=0;" parent="1" source="L-Oy49CxzgtTOeUKxRRn-56" edge="1">
          <mxGeometry x="-0.6338" y="31" relative="1" as="geometry">
            <mxPoint x="570" y="390" as="targetPoint" />
            <mxPoint as="offset" />
          </mxGeometry>
        </mxCell>
        <mxCell id="L-Oy49CxzgtTOeUKxRRn-64" value="Account inloggen met gegevens" style="rounded=1;whiteSpace=wrap;html=1;arcSize=40;fontColor=#000000;fillColor=#ffffc0;strokeColor=#ff0000;" parent="1" vertex="1">
          <mxGeometry x="505" y="393" width="130" height="40" as="geometry" />
        </mxCell>
        <mxCell id="L-Oy49CxzgtTOeUKxRRn-65" value="" style="edgeStyle=orthogonalEdgeStyle;html=1;verticalAlign=bottom;endArrow=open;endSize=8;strokeColor=#ff0000;rounded=0;" parent="1" source="L-Oy49CxzgtTOeUKxRRn-64" edge="1">
          <mxGeometry relative="1" as="geometry">
            <mxPoint x="570" y="450" as="targetPoint" />
          </mxGeometry>
        </mxCell>
        <mxCell id="L-Oy49CxzgtTOeUKxRRn-66" value="Wachtwoord &amp;amp; email correct?" style="rhombus;whiteSpace=wrap;html=1;fontColor=#000000;fillColor=#ffffc0;strokeColor=#ff0000;" parent="1" vertex="1">
          <mxGeometry x="500" y="450" width="140" height="90" as="geometry" />
        </mxCell>
        <mxCell id="L-Oy49CxzgtTOeUKxRRn-67" value="no" style="edgeStyle=orthogonalEdgeStyle;html=1;align=left;verticalAlign=bottom;endArrow=open;endSize=8;strokeColor=#ff0000;rounded=0;" parent="1" source="L-Oy49CxzgtTOeUKxRRn-66" target="L-Oy49CxzgtTOeUKxRRn-42" edge="1">
          <mxGeometry x="-1" relative="1" as="geometry">
            <mxPoint x="750" y="290" as="targetPoint" />
            <Array as="points">
              <mxPoint x="750" y="495" />
              <mxPoint x="750" y="160" />
            </Array>
          </mxGeometry>
        </mxCell>
        <mxCell id="L-Oy49CxzgtTOeUKxRRn-68" value="yes" style="edgeStyle=orthogonalEdgeStyle;html=1;align=left;verticalAlign=top;endArrow=open;endSize=8;strokeColor=#ff0000;rounded=0;" parent="1" source="L-Oy49CxzgtTOeUKxRRn-66" edge="1">
          <mxGeometry x="-1" y="30" relative="1" as="geometry">
            <mxPoint x="570" y="570" as="targetPoint" />
            <mxPoint as="offset" />
          </mxGeometry>
        </mxCell>
        <mxCell id="L-Oy49CxzgtTOeUKxRRn-69" value="Log account in" style="rounded=1;whiteSpace=wrap;html=1;arcSize=40;fontColor=#000000;fillColor=#ffffc0;strokeColor=#ff0000;" parent="1" vertex="1">
          <mxGeometry x="510" y="570" width="120" height="40" as="geometry" />
        </mxCell>
        <mxCell id="L-Oy49CxzgtTOeUKxRRn-70" value="" style="edgeStyle=orthogonalEdgeStyle;html=1;verticalAlign=bottom;endArrow=open;endSize=8;strokeColor=#ff0000;rounded=0;" parent="1" source="L-Oy49CxzgtTOeUKxRRn-69" edge="1">
          <mxGeometry relative="1" as="geometry">
            <mxPoint x="710" y="590" as="targetPoint" />
          </mxGeometry>
        </mxCell>
        <mxCell id="L-Oy49CxzgtTOeUKxRRn-71" value="Fout opgetreden?" style="rhombus;whiteSpace=wrap;html=1;fontColor=#000000;fillColor=#ffffc0;strokeColor=#ff0000;" parent="1" vertex="1">
          <mxGeometry x="710" y="570" width="140" height="40" as="geometry" />
        </mxCell>
        <mxCell id="L-Oy49CxzgtTOeUKxRRn-72" value="no" style="edgeStyle=orthogonalEdgeStyle;html=1;align=left;verticalAlign=bottom;endArrow=open;endSize=8;strokeColor=#ff0000;rounded=0;" parent="1" source="L-Oy49CxzgtTOeUKxRRn-71" edge="1">
          <mxGeometry x="-1" relative="1" as="geometry">
            <mxPoint x="890" y="590" as="targetPoint" />
          </mxGeometry>
        </mxCell>
        <mxCell id="L-Oy49CxzgtTOeUKxRRn-73" value="yes" style="edgeStyle=orthogonalEdgeStyle;html=1;align=left;verticalAlign=top;endArrow=open;endSize=8;strokeColor=#ff0000;rounded=0;" parent="1" source="L-Oy49CxzgtTOeUKxRRn-71" target="L-Oy49CxzgtTOeUKxRRn-42" edge="1">
          <mxGeometry x="-0.9286" y="-20" relative="1" as="geometry">
            <mxPoint x="870" y="670" as="targetPoint" />
            <Array as="points">
              <mxPoint x="780" y="520" />
              <mxPoint x="750" y="520" />
              <mxPoint x="750" y="160" />
            </Array>
            <mxPoint as="offset" />
          </mxGeometry>
        </mxCell>
        <mxCell id="L-Oy49CxzgtTOeUKxRRn-76" value="Success message" style="text;strokeColor=none;fillColor=none;align=left;verticalAlign=top;spacingLeft=4;spacingRight=4;overflow=hidden;rotatable=0;points=[[0,0.5],[1,0.5]];portConstraint=eastwest;" parent="1" vertex="1">
          <mxGeometry x="890" y="577" width="130" height="26" as="geometry" />
        </mxCell>
        <mxCell id="L-Oy49CxzgtTOeUKxRRn-79" value="Login failed message" style="text;strokeColor=none;fillColor=none;align=left;verticalAlign=top;spacingLeft=4;spacingRight=4;overflow=hidden;rotatable=0;points=[[0,0.5],[1,0.5]];portConstraint=eastwest;" parent="1" vertex="1">
          <mxGeometry x="750" y="490" width="130" height="26" as="geometry" />
        </mxCell>
        <mxCell id="L-Oy49CxzgtTOeUKxRRn-122" value="Geeft melding weer" style="rounded=1;whiteSpace=wrap;html=1;arcSize=40;fontColor=#000000;fillColor=#ffffc0;strokeColor=#ff0000;" parent="1" vertex="1">
          <mxGeometry x="670" y="140" width="120" height="40" as="geometry" />
        </mxCell>
        <mxCell id="L-Oy49CxzgtTOeUKxRRn-125" value="Validation error" style="text;strokeColor=none;fillColor=none;align=left;verticalAlign=top;spacingLeft=4;spacingRight=4;overflow=hidden;rotatable=0;points=[[0,0.5],[1,0.5]];portConstraint=eastwest;" parent="1" vertex="1">
          <mxGeometry x="665" y="114" width="130" height="26" as="geometry" />
        </mxCell>
        <mxCell id="zSXJj523BaKUhdF8iDlw-7" style="edgeStyle=orthogonalEdgeStyle;rounded=0;orthogonalLoop=1;jettySize=auto;html=1;" edge="1" parent="1" source="zSXJj523BaKUhdF8iDlw-2" target="zSXJj523BaKUhdF8iDlw-5">
          <mxGeometry relative="1" as="geometry" />
        </mxCell>
        <mxCell id="zSXJj523BaKUhdF8iDlw-2" value="" style="ellipse;html=1;shape=endState;fillColor=#000000;strokeColor=#ff0000;" vertex="1" parent="1">
          <mxGeometry x="120" y="70" width="30" height="30" as="geometry" />
        </mxCell>
        <mxCell id="zSXJj523BaKUhdF8iDlw-3" value="Inloggen" style="text;html=1;strokeColor=none;fillColor=none;align=center;verticalAlign=middle;whiteSpace=wrap;rounded=0;" vertex="1" parent="1">
          <mxGeometry x="575" y="60" width="60" height="30" as="geometry" />
        </mxCell>
        <mxCell id="zSXJj523BaKUhdF8iDlw-4" value="Registreren" style="text;html=1;strokeColor=none;fillColor=none;align=center;verticalAlign=middle;whiteSpace=wrap;rounded=0;" vertex="1" parent="1">
          <mxGeometry x="140" y="50" width="60" height="30" as="geometry" />
        </mxCell>
        <mxCell id="zSXJj523BaKUhdF8iDlw-5" value="Gegevens invoeren" style="rounded=1;whiteSpace=wrap;html=1;arcSize=40;fontColor=#000000;fillColor=#ffffc0;strokeColor=#ff0000;" vertex="1" parent="1">
          <mxGeometry x="75" y="130" width="120" height="40" as="geometry" />
        </mxCell>
        <mxCell id="zSXJj523BaKUhdF8iDlw-6" value="" style="edgeStyle=orthogonalEdgeStyle;html=1;verticalAlign=bottom;endArrow=open;endSize=8;strokeColor=#ff0000;rounded=0;" edge="1" source="zSXJj523BaKUhdF8iDlw-5" parent="1">
          <mxGeometry relative="1" as="geometry">
            <mxPoint x="135" y="230" as="targetPoint" />
          </mxGeometry>
        </mxCell>
        <mxCell id="zSXJj523BaKUhdF8iDlw-8" value="Email wachtwoord &amp;amp; naam ingevoerd" style="rhombus;whiteSpace=wrap;html=1;fontColor=#000000;fillColor=#ffffc0;strokeColor=#ff0000;" vertex="1" parent="1">
          <mxGeometry x="72.5" y="230" width="125" height="80" as="geometry" />
        </mxCell>
        <mxCell id="zSXJj523BaKUhdF8iDlw-9" value="no" style="edgeStyle=orthogonalEdgeStyle;html=1;align=left;verticalAlign=bottom;endArrow=open;endSize=8;strokeColor=#ff0000;rounded=0;" edge="1" source="zSXJj523BaKUhdF8iDlw-8" parent="1" target="zSXJj523BaKUhdF8iDlw-14">
          <mxGeometry x="-0.6991" y="10" relative="1" as="geometry">
            <mxPoint x="270" y="250" as="targetPoint" />
            <mxPoint as="offset" />
          </mxGeometry>
        </mxCell>
        <mxCell id="zSXJj523BaKUhdF8iDlw-10" value="yes" style="edgeStyle=orthogonalEdgeStyle;html=1;align=left;verticalAlign=top;endArrow=open;endSize=8;strokeColor=#ff0000;rounded=0;" edge="1" source="zSXJj523BaKUhdF8iDlw-8" parent="1">
          <mxGeometry x="-1" relative="1" as="geometry">
            <mxPoint x="135" y="350" as="targetPoint" />
          </mxGeometry>
        </mxCell>
        <mxCell id="zSXJj523BaKUhdF8iDlw-12" value="Yes" style="edgeStyle=orthogonalEdgeStyle;rounded=0;orthogonalLoop=1;jettySize=auto;html=1;" edge="1" parent="1" source="zSXJj523BaKUhdF8iDlw-11" target="zSXJj523BaKUhdF8iDlw-14">
          <mxGeometry x="-0.7022" y="13" relative="1" as="geometry">
            <mxPoint x="280" y="393" as="targetPoint" />
            <mxPoint as="offset" />
          </mxGeometry>
        </mxCell>
        <mxCell id="zSXJj523BaKUhdF8iDlw-13" value="No" style="edgeStyle=orthogonalEdgeStyle;rounded=0;orthogonalLoop=1;jettySize=auto;html=1;" edge="1" parent="1" source="zSXJj523BaKUhdF8iDlw-11">
          <mxGeometry relative="1" as="geometry">
            <mxPoint x="138" y="500" as="targetPoint" />
            <Array as="points">
              <mxPoint x="138" y="470" />
            </Array>
          </mxGeometry>
        </mxCell>
        <mxCell id="zSXJj523BaKUhdF8iDlw-11" value="Account bestaat " style="rhombus;whiteSpace=wrap;html=1;fontColor=#000000;fillColor=#ffffc0;strokeColor=#ff0000;" vertex="1" parent="1">
          <mxGeometry x="75" y="353" width="125" height="80" as="geometry" />
        </mxCell>
        <mxCell id="zSXJj523BaKUhdF8iDlw-14" value="Error melding &amp;amp; stuur terug naar scherm" style="rounded=1;whiteSpace=wrap;html=1;arcSize=40;fontColor=#000000;fillColor=#ffffc0;strokeColor=#ff0000;" vertex="1" parent="1">
          <mxGeometry x="260" y="70" width="120" height="40" as="geometry" />
        </mxCell>
        <mxCell id="zSXJj523BaKUhdF8iDlw-15" value="" style="edgeStyle=orthogonalEdgeStyle;html=1;verticalAlign=bottom;endArrow=open;endSize=8;strokeColor=#ff0000;rounded=0;" edge="1" source="zSXJj523BaKUhdF8iDlw-14" parent="1" target="zSXJj523BaKUhdF8iDlw-2">
          <mxGeometry relative="1" as="geometry">
            <mxPoint x="170" y="44" as="targetPoint" />
            <Array as="points">
              <mxPoint x="220" y="85" />
              <mxPoint x="220" y="85" />
            </Array>
          </mxGeometry>
        </mxCell>
        <mxCell id="zSXJj523BaKUhdF8iDlw-16" value="Gegevens opslaan in database" style="rounded=1;whiteSpace=wrap;html=1;arcSize=40;fontColor=#000000;fillColor=#ffffc0;strokeColor=#ff0000;" vertex="1" parent="1">
          <mxGeometry x="80" y="500" width="120" height="40" as="geometry" />
        </mxCell>
        <mxCell id="zSXJj523BaKUhdF8iDlw-17" value="" style="edgeStyle=orthogonalEdgeStyle;html=1;verticalAlign=bottom;endArrow=open;endSize=8;strokeColor=#ff0000;rounded=0;" edge="1" source="zSXJj523BaKUhdF8iDlw-16" parent="1">
          <mxGeometry relative="1" as="geometry">
            <mxPoint x="140" y="580" as="targetPoint" />
          </mxGeometry>
        </mxCell>
      </root>
    </mxGraphModel>
  </diagram>
</mxfile>
